<svg width="302" height="290" viewBox="0 0 302 290" fill="none" xmlns="http://www.w3.org/2000/svg">
<circle cx="151" cy="146" r="125" fill="#5790FF"/>
<path d="M266 146C266 209.513 214.513 261 151 261C87.4873 261 36 209.513 36 146C36 82.4873 87.4873 31 151 31C214.513 31 266 82.4873 266 146Z" fill="#F6EBE5"/>
<g clip-path="url(#clip0_404_476)">
<path fill-rule="evenodd" clip-rule="evenodd" d="M226.075 203.987C224.238 209.087 219.334 214.347 214.374 216.535C210.344 218.313 207.138 221.515 205.618 225.81C202.41 234.875 207.91 245.412 217.922 249.501C217.924 249.502 217.926 249.503 217.927 249.506V249.506L220.648 250.406C229.848 253.449 238.678 257.51 246.974 262.515L254.867 267.277C257.212 268.564 260.124 268.102 261.94 266.154C263.891 264.062 264.027 260.857 262.262 258.59L251.846 245.213C250.619 243.638 250.714 241.41 252.07 239.957C253.425 238.503 255.641 238.253 257.298 239.367L271.368 248.824C273.753 250.427 276.941 250.068 278.891 247.976C280.708 246.028 280.966 243.091 279.518 240.841L274.218 233.3C268.646 225.373 263.978 216.848 260.301 207.883L259.213 205.231V205.231C259.211 205.23 259.209 205.229 259.208 205.227C254.431 195.524 243.536 190.772 234.717 194.605C230.538 196.422 227.568 199.843 226.075 203.987Z" fill="url(#paint0_linear_404_476)"/>
<g filter="url(#filter0_f_404_476)">
<path d="M212.077 229.305L210.106 228.113C209.522 227.76 208.769 227.864 208.303 228.364C207.824 228.878 207.785 229.662 208.209 230.221L209.414 231.81C211.165 234.118 211.313 237.267 209.787 239.729L208.19 242.305C207.849 242.854 207.945 243.567 208.417 244.008C208.904 244.462 209.65 244.494 210.174 244.083L212.281 242.433C214.657 240.572 217.958 240.443 220.472 242.114L222.224 243.278C222.807 243.666 223.586 243.574 224.063 243.062C224.529 242.563 224.577 241.805 224.18 241.25L222.779 239.299C221.078 236.929 221.026 233.752 222.647 231.327L224.09 229.169C224.461 228.614 224.375 227.872 223.887 227.417C223.414 226.976 222.697 226.929 222.17 227.303L219.757 229.019C217.483 230.637 214.466 230.749 212.077 229.305Z" fill="url(#paint1_linear_404_476)"/>
</g>
<path d="M212.599 230.79L209.128 228.291C208.87 228.105 208.512 228.14 208.295 228.373C208.072 228.612 208.067 228.981 208.284 229.225L211.092 232.392C212.744 234.255 212.873 237.019 211.4 239.027L208.348 243.187C208.161 243.444 208.194 243.8 208.426 244.016C208.665 244.239 209.034 244.241 209.275 244.021L212.861 240.757C214.794 238.997 217.713 238.881 219.78 240.483L223.207 243.139C223.465 243.339 223.833 243.309 224.055 243.07C224.273 242.837 224.282 242.478 224.077 242.234L221.262 238.884C219.565 236.862 219.517 233.928 221.148 231.853L223.962 228.274C224.164 228.017 224.136 227.649 223.897 227.426C223.664 227.209 223.307 227.2 223.064 227.405L219.338 230.537C217.415 232.154 214.639 232.259 212.599 230.79Z" fill="url(#paint2_linear_404_476)"/>
<g filter="url(#filter1_f_404_476)">
<path d="M259.981 220.582L259.312 220.177C258.944 219.955 258.471 220.02 258.178 220.335C257.877 220.658 257.852 221.15 258.119 221.502L258.447 221.935C259.807 223.728 259.922 226.173 258.736 228.085L258.107 229.1C257.893 229.446 257.952 229.894 258.25 230.171C258.556 230.457 259.025 230.477 259.354 230.218L260.078 229.652C261.931 228.2 264.505 228.1 266.465 229.402L266.931 229.712C267.298 229.956 267.787 229.898 268.087 229.576C268.38 229.262 268.411 228.786 268.16 228.437L267.569 227.612C266.326 225.88 266.287 223.558 267.472 221.786L268.104 220.841C268.338 220.492 268.284 220.025 267.977 219.739C267.679 219.462 267.228 219.432 266.897 219.668L265.923 220.361C264.163 221.612 261.829 221.699 259.981 220.582Z" fill="url(#paint3_linear_404_476)"/>
</g>
<path d="M260.879 221.86L258.697 220.289C258.534 220.171 258.309 220.194 258.173 220.34C258.033 220.49 258.03 220.723 258.166 220.876L259.932 222.867C260.97 224.039 261.051 225.777 260.125 227.039L258.206 229.655C258.088 229.816 258.109 230.04 258.255 230.176C258.405 230.316 258.638 230.318 258.789 230.179L261.044 228.127C262.259 227.02 264.095 226.948 265.394 227.955L267.549 229.625C267.711 229.75 267.943 229.731 268.082 229.582C268.219 229.435 268.225 229.209 268.096 229.056L266.326 226.949C265.259 225.678 265.229 223.833 266.255 222.528L268.024 220.278C268.151 220.117 268.133 219.885 267.983 219.745C267.837 219.609 267.612 219.603 267.459 219.731L265.116 221.701C263.907 222.718 262.161 222.783 260.879 221.86Z" fill="url(#paint4_linear_404_476)"/>
</g>
<path d="M89.0511 78.2821C84.2975 80.9446 79.8328 86.6591 78.3994 91.9156C77.2347 96.1865 74.5484 99.8828 70.5409 102.099C62.0822 106.776 50.9079 103.107 45.4289 93.91L45.4266 93.9112L41.984 87.9314C41.1714 86.5198 41.2958 84.7565 42.2986 83.473L72.1256 45.2962C73.1283 44.0127 74.8092 43.4654 76.3754 43.9124L83.0105 45.8061L83.0098 45.8086C93.2588 48.9 99.5227 58.8547 97.0305 68.1936C95.8498 72.6182 92.9133 76.1189 89.0511 78.2821Z" fill="url(#paint5_linear_404_476)"/>
<path d="M89.0511 78.2821C84.2975 80.9446 79.8328 86.6591 78.3994 91.9156C77.2347 96.1865 74.5484 99.8828 70.5409 102.099C62.0822 106.776 50.9079 103.107 45.4289 93.91L45.4266 93.9112L41.984 87.9314C41.1714 86.5198 41.2958 84.7565 42.2986 83.473L72.1256 45.2962C73.1283 44.0127 74.8092 43.4654 76.3754 43.9124L83.0105 45.8061L83.0098 45.8086C93.2588 48.9 99.5227 58.8547 97.0305 68.1936C95.8498 72.6182 92.9133 76.1189 89.0511 78.2821Z" fill="url(#paint6_linear_404_476)" fill-opacity="0.1"/>
<path d="M89.0511 78.2821C84.2975 80.9446 79.8328 86.6591 78.3994 91.9156C77.2347 96.1865 74.5484 99.8828 70.5409 102.099C62.0822 106.776 50.9079 103.107 45.4289 93.91L45.4266 93.9112L41.984 87.9314C41.1714 86.5198 41.2958 84.7565 42.2986 83.473L72.1256 45.2962C73.1283 44.0127 74.8092 43.4654 76.3754 43.9124L83.0105 45.8061L83.0098 45.8086C93.2588 48.9 99.5227 58.8547 97.0305 68.1936C95.8498 72.6182 92.9133 76.1189 89.0511 78.2821Z" fill="url(#paint7_linear_404_476)" fill-opacity="0.05"/>
<path d="M65.9299 48.3535L43.7661 76.7218L30.6992 56.9687C28.0779 53.0062 28.2827 47.8117 31.2077 44.0678C34.1328 40.3239 39.1234 38.8686 43.6023 40.4534L65.9299 48.3535Z" fill="url(#paint8_linear_404_476)"/>
<path d="M72.4805 40.7812C73.5686 41.6312 73.7615 43.2023 72.9114 44.2903L41.5127 84.4789C40.6626 85.5669 39.0915 85.7598 38.0035 84.9098C36.9155 84.0597 36.7226 82.4886 37.5726 81.4006L68.9714 41.212C69.8214 40.124 71.3925 39.9311 72.4805 40.7812Z" fill="url(#paint9_linear_404_476)"/>
<path d="M45.5154 38.749C46.3858 39.429 46.5401 40.6859 45.8601 41.5563L32.3155 58.8925C31.6355 59.763 30.3786 59.9173 29.5082 59.2372C28.6378 58.5572 28.4834 57.3003 29.1635 56.4299L42.708 39.0937C43.3881 38.2232 44.645 38.0689 45.5154 38.749Z" fill="url(#paint10_linear_404_476)"/>
<path d="M52.5706 41.0886C53.441 41.7686 53.5954 43.0255 52.9153 43.8959L36.2925 65.1722C35.6124 66.0426 34.3555 66.1969 33.4851 65.5169C32.6147 64.8369 32.4604 63.58 33.1404 62.7095L49.7633 41.4333C50.4433 40.5628 51.7002 40.4085 52.5706 41.0886Z" fill="url(#paint11_linear_404_476)"/>
<path d="M59.6259 43.4282C60.4963 44.1082 60.6506 45.3651 59.9706 46.2355L40.2694 71.4518C39.5893 72.3223 38.3325 72.4766 37.462 71.7965C36.5916 71.1165 36.4373 69.8596 37.1173 68.9892L56.8185 43.7729C57.4985 42.9024 58.7554 42.7481 59.6259 43.4282Z" fill="url(#paint12_linear_404_476)"/>
<path d="M59.6259 43.4282C60.4963 44.1082 60.6506 45.3651 59.9706 46.2355L40.2694 71.4518C39.5893 72.3223 38.3325 72.4766 37.462 71.7965C36.5916 71.1165 36.4373 69.8596 37.1173 68.9892L56.8185 43.7729C57.4985 42.9024 58.7554 42.7481 59.6259 43.4282Z" fill="url(#paint13_linear_404_476)"/>
<g clip-path="url(#clip1_404_476)">
<path fill-rule="evenodd" clip-rule="evenodd" d="M210.879 73.755C215.799 76.0295 220.611 81.3737 222.359 86.5051C223.779 90.6743 226.69 94.1472 230.836 96.0362C239.587 100.023 250.563 95.4617 255.509 85.844C255.51 85.8418 255.512 85.8402 255.514 85.8394V85.8394L256.648 83.2068C260.481 74.3078 265.297 65.8652 271.006 58.0363L276.437 50.5889C277.924 48.3653 277.717 45.4239 275.935 43.4448C274.021 41.3191 270.84 40.9039 268.427 42.4649L254.194 51.6753C252.518 52.76 250.307 52.4715 248.977 50.9944C247.647 49.5173 247.591 47.2886 248.845 45.7348L259.493 32.5424C261.298 30.3065 261.217 27.0993 259.303 24.9736C257.521 22.9945 254.618 22.4815 252.251 23.7276L244.277 28.3503C235.894 33.2098 226.994 37.1168 217.743 39.9987L215.006 40.8512V40.8512C215.005 40.8534 215.004 40.8551 215.001 40.8559C204.919 44.7695 199.236 55.2086 202.286 64.3279C203.731 68.6493 206.881 71.907 210.879 73.755Z" fill="url(#paint14_linear_404_476)"/>
<path fill-rule="evenodd" clip-rule="evenodd" d="M210.879 73.755C215.799 76.0295 220.611 81.3737 222.359 86.5051C223.779 90.6743 226.69 94.1472 230.836 96.0362C239.587 100.023 250.563 95.4617 255.509 85.844C255.51 85.8418 255.512 85.8402 255.514 85.8394V85.8394L256.648 83.2068C260.481 74.3078 265.297 65.8652 271.006 58.0363L276.437 50.5889C277.924 48.3653 277.717 45.4239 275.935 43.4448C274.021 41.3191 270.84 40.9039 268.427 42.4649L254.194 51.6753C252.518 52.76 250.307 52.4715 248.977 50.9944C247.647 49.5173 247.591 47.2886 248.845 45.7348L259.493 32.5424C261.298 30.3065 261.217 27.0993 259.303 24.9736C257.521 22.9945 254.618 22.4815 252.251 23.7276L244.277 28.3503C235.894 33.2098 226.994 37.1168 217.743 39.9987L215.006 40.8512V40.8512C215.005 40.8534 215.004 40.8551 215.001 40.8559C204.919 44.7695 199.236 55.2086 202.286 64.3279C203.731 68.6493 206.881 71.907 210.879 73.755Z" fill="url(#paint15_linear_404_476)"/>
<path fill-rule="evenodd" clip-rule="evenodd" d="M222.763 87.5772C227.596 82.4976 233.847 72.5557 233.541 59.2034C233.349 50.8636 230.07 43.2004 226.119 37.0723C223.363 38.1421 220.569 39.1182 217.743 39.9987L215.006 40.8512C215.005 40.8534 215.004 40.8551 215.001 40.8559C204.919 44.7695 199.236 55.2086 202.286 64.3279C203.731 68.6493 206.881 71.907 210.879 73.755C215.799 76.0295 220.611 81.3737 222.359 86.5051C222.483 86.8679 222.617 87.2255 222.763 87.5772Z" fill="url(#paint16_linear_404_476)"/>
<path fill-rule="evenodd" clip-rule="evenodd" d="M222.763 87.5772C227.596 82.4976 233.847 72.5557 233.541 59.2034C233.349 50.8636 230.07 43.2004 226.119 37.0723C223.363 38.1421 220.569 39.1182 217.743 39.9987L215.006 40.8512C215.005 40.8534 215.004 40.8551 215.001 40.8559C204.919 44.7695 199.236 55.2086 202.286 64.3279C203.731 68.6493 206.881 71.907 210.879 73.755C215.799 76.0295 220.611 81.3737 222.359 86.5051C222.483 86.8679 222.617 87.2255 222.763 87.5772Z" fill="url(#paint17_linear_404_476)" fill-opacity="0.1"/>
<path fill-rule="evenodd" clip-rule="evenodd" d="M222.763 87.5772C227.596 82.4976 233.847 72.5557 233.541 59.2034C233.349 50.8636 230.07 43.2004 226.119 37.0723C223.363 38.1421 220.569 39.1182 217.743 39.9987L215.006 40.8512C215.005 40.8534 215.004 40.8551 215.001 40.8559C204.919 44.7695 199.236 55.2086 202.286 64.3279C203.731 68.6493 206.881 71.907 210.879 73.755C215.799 76.0295 220.611 81.3737 222.359 86.5051C222.483 86.8679 222.617 87.2255 222.763 87.5772Z" fill="url(#paint18_linear_404_476)" fill-opacity="0.1"/>
<path fill-rule="evenodd" clip-rule="evenodd" d="M222.763 87.5772C227.596 82.4976 233.847 72.5557 233.541 59.2034C233.349 50.8636 230.07 43.2004 226.119 37.0723C223.363 38.1421 220.569 39.1182 217.743 39.9987L215.006 40.8512C215.005 40.8534 215.004 40.8551 215.001 40.8559C204.919 44.7695 199.236 55.2086 202.286 64.3279C203.731 68.6493 206.881 71.907 210.879 73.755C215.799 76.0295 220.611 81.3737 222.359 86.5051C222.483 86.8679 222.617 87.2255 222.763 87.5772Z" fill="url(#paint19_linear_404_476)"/>
<path fill-rule="evenodd" clip-rule="evenodd" d="M222.763 87.5772C227.596 82.4976 233.847 72.5557 233.541 59.2034C233.349 50.8636 230.07 43.2004 226.119 37.0723C223.363 38.1421 220.569 39.1182 217.743 39.9987L215.006 40.8512C215.005 40.8534 215.004 40.8551 215.001 40.8559C204.919 44.7695 199.236 55.2086 202.286 64.3279C203.731 68.6493 206.881 71.907 210.879 73.755C215.799 76.0295 220.611 81.3737 222.359 86.5051C222.483 86.8679 222.617 87.2255 222.763 87.5772Z" fill="url(#paint20_linear_404_476)" fill-opacity="0.1"/>
<path fill-rule="evenodd" clip-rule="evenodd" d="M222.763 87.5772C227.596 82.4976 233.847 72.5557 233.541 59.2034C233.349 50.8636 230.07 43.2004 226.119 37.0723C223.363 38.1421 220.569 39.1182 217.743 39.9987L215.006 40.8512C215.005 40.8534 215.004 40.8551 215.001 40.8559C204.919 44.7695 199.236 55.2086 202.286 64.3279C203.731 68.6493 206.881 71.907 210.879 73.755C215.799 76.0295 220.611 81.3737 222.359 86.5051C222.483 86.8679 222.617 87.2255 222.763 87.5772Z" fill="url(#paint21_linear_404_476)" fill-opacity="0.1"/>
<path d="M229.396 77.9519C231.881 72.9042 233.71 66.5733 233.541 59.2034C233.44 54.8367 232.494 50.6554 231.047 46.7829L220.068 50.5614C213.027 52.9848 211.807 62.4236 218.001 66.5575L222.129 69.3125C224.99 71.2223 227.311 73.8379 228.866 76.9067L229.396 77.9519Z" fill="url(#paint22_radial_404_476)"/>
</g>
<g clip-path="url(#clip2_404_476)">
<path fill-rule="evenodd" clip-rule="evenodd" d="M85.6782 211.572C80.5468 209.824 75.2026 205.012 72.9281 200.091C71.0801 196.093 67.8224 192.944 63.5011 191.499C54.3818 188.449 43.9427 194.132 40.0291 204.214C40.0283 204.216 40.0266 204.218 40.0244 204.219V204.219L39.1719 206.956C36.29 216.207 32.383 225.107 27.5235 233.489L22.9008 241.464C21.6547 243.83 22.1677 246.734 24.1468 248.516C26.2725 250.43 29.4797 250.51 31.7156 248.706L44.9081 238.058C46.4618 236.804 48.6905 236.86 50.1676 238.19C51.6447 239.52 51.9333 241.731 50.8485 243.407L41.6381 257.64C40.0771 260.052 40.4923 263.234 42.618 265.148C44.5971 266.93 47.5385 267.136 49.7621 265.65L57.2095 260.219C65.0384 254.51 73.481 249.694 82.38 245.861L85.0126 244.727V244.727C85.0134 244.724 85.015 244.723 85.0171 244.721C94.6349 239.775 99.1958 228.799 95.2094 220.049C93.3204 215.902 89.8475 212.992 85.6782 211.572Z" fill="url(#paint23_linear_404_476)"/>
<path d="M41.4674 201.191C38.7197 208.969 37.1371 218.427 38.4999 229.044C39.028 233.159 40.0509 237.11 41.4322 240.864L44.9081 238.058C46.4618 236.804 48.6905 236.86 50.1676 238.19C51.6447 239.52 51.9333 241.731 50.8485 243.407L46.0871 250.765C48.53 255.021 51.3455 258.913 54.2565 262.372L57.2095 260.219C65.0384 254.51 73.481 249.694 82.38 245.861L85.0126 244.727C85.0134 244.724 85.015 244.723 85.0171 244.721C94.6349 239.775 99.1958 228.799 95.2094 220.049C93.3204 215.902 89.8475 212.992 85.6782 211.572C80.5468 209.824 75.2026 205.012 72.9281 200.091C71.0801 196.093 67.8224 192.944 63.5011 191.499C55.3386 188.769 46.1187 193.036 41.4674 201.191Z" fill="url(#paint24_linear_404_476)"/>
<path d="M41.4674 201.191C38.7197 208.969 37.1371 218.427 38.4999 229.044C39.028 233.159 40.0509 237.11 41.4322 240.864L44.9081 238.058C46.4618 236.804 48.6905 236.86 50.1676 238.19C51.6447 239.52 51.9333 241.731 50.8485 243.407L46.0871 250.765C48.53 255.021 51.3455 258.913 54.2565 262.372L57.2095 260.219C65.0384 254.51 73.481 249.694 82.38 245.861L85.0126 244.727C85.0134 244.724 85.015 244.723 85.0171 244.721C94.6349 239.775 99.1958 228.799 95.2094 220.049C93.3204 215.902 89.8475 212.992 85.6782 211.572C80.5468 209.824 75.2026 205.012 72.9281 200.091C71.0801 196.093 67.8224 192.944 63.5011 191.499C55.3386 188.769 46.1187 193.036 41.4674 201.191Z" fill="url(#paint25_linear_404_476)" fill-opacity="0.1"/>
<path d="M41.4674 201.191C38.7197 208.969 37.1371 218.427 38.4999 229.044C39.028 233.159 40.0509 237.11 41.4322 240.864L44.9081 238.058C46.4618 236.804 48.6905 236.86 50.1676 238.19C51.6447 239.52 51.9333 241.731 50.8485 243.407L46.0871 250.765C48.53 255.021 51.3455 258.913 54.2565 262.372L57.2095 260.219C65.0384 254.51 73.481 249.694 82.38 245.861L85.0126 244.727C85.0134 244.724 85.015 244.723 85.0171 244.721C94.6349 239.775 99.1958 228.799 95.2094 220.049C93.3204 215.902 89.8475 212.992 85.6782 211.572C80.5468 209.824 75.2026 205.012 72.9281 200.091C71.0801 196.093 67.8224 192.944 63.5011 191.499C55.3386 188.769 46.1187 193.036 41.4674 201.191Z" fill="url(#paint26_linear_404_476)" fill-opacity="0.1"/>
<path d="M39.7217 235.387C39.3743 234.034 39.0769 232.66 38.8352 231.266C41.528 227.473 43.6609 223.3 45.1592 218.875L48.6934 208.437C51.0882 201.364 60.5585 200.116 64.7039 206.327L67.4825 210.49C69.337 213.269 71.8579 215.539 74.8152 217.093L79.7182 219.669C86.2419 223.097 86.1061 232.483 79.486 235.721L68.9222 240.887C63.4019 243.587 58.4513 247.322 54.3394 251.889L49.9348 256.78C49.498 256.162 49.0671 255.534 48.6434 254.896L55.7632 245.148C57.7286 242.457 58.1408 238.934 56.8496 235.862C55.8619 233.512 53.8776 231.725 51.4375 230.989C48.2475 230.026 44.7861 230.804 42.3154 233.04L39.7217 235.387Z" fill="url(#paint27_radial_404_476)"/>
</g>
<defs>
<filter id="filter0_f_404_476" x="203.915" y="223.051" width="24.5326" height="25.3199" filterUnits="userSpaceOnUse" color-interpolation-filters="sRGB">
<feFlood flood-opacity="0" result="BackgroundImageFix"/>
<feBlend mode="normal" in="SourceGraphic" in2="BackgroundImageFix" result="shape"/>
<feGaussianBlur stdDeviation="2" result="effect1_foregroundBlur_404_476"/>
</filter>
<filter id="filter1_f_404_476" x="253.934" y="215.509" width="18.3952" height="18.8902" filterUnits="userSpaceOnUse" color-interpolation-filters="sRGB">
<feFlood flood-opacity="0" result="BackgroundImageFix"/>
<feBlend mode="normal" in="SourceGraphic" in2="BackgroundImageFix" result="shape"/>
<feGaussianBlur stdDeviation="2" result="effect1_foregroundBlur_404_476"/>
</filter>
<linearGradient id="paint0_linear_404_476" x1="203.308" y1="226.39" x2="278.552" y2="244.234" gradientUnits="userSpaceOnUse">
<stop stop-color="#F0F6F9"/>
<stop offset="1" stop-color="#CDDFF2"/>
</linearGradient>
<linearGradient id="paint1_linear_404_476" x1="208.289" y1="228.38" x2="224.049" y2="243.077" gradientUnits="userSpaceOnUse">
<stop stop-color="white"/>
<stop offset="1" stop-color="white"/>
</linearGradient>
<linearGradient id="paint2_linear_404_476" x1="208.289" y1="228.38" x2="224.049" y2="243.077" gradientUnits="userSpaceOnUse">
<stop stop-color="white"/>
<stop offset="1" stop-color="white"/>
</linearGradient>
<linearGradient id="paint3_linear_404_476" x1="258.169" y1="220.344" x2="268.079" y2="229.586" gradientUnits="userSpaceOnUse">
<stop stop-color="white"/>
<stop offset="1" stop-color="white"/>
</linearGradient>
<linearGradient id="paint4_linear_404_476" x1="258.169" y1="220.344" x2="268.079" y2="229.586" gradientUnits="userSpaceOnUse">
<stop stop-color="white"/>
<stop offset="1" stop-color="white"/>
</linearGradient>
<linearGradient id="paint5_linear_404_476" x1="99.2786" y1="67.3913" x2="23.4836" y2="55.5622" gradientUnits="userSpaceOnUse">
<stop stop-color="#F0F6F9"/>
<stop offset="1" stop-color="#CDDFF2"/>
</linearGradient>
<linearGradient id="paint6_linear_404_476" x1="56.3379" y1="63.0671" x2="58.7019" y2="64.9141" gradientUnits="userSpaceOnUse">
<stop offset="0.241809" stop-color="#065099"/>
<stop offset="1" stop-color="#DFEBF6" stop-opacity="0.47"/>
</linearGradient>
<linearGradient id="paint7_linear_404_476" x1="57.2121" y1="64.3846" x2="60.3641" y2="66.8473" gradientUnits="userSpaceOnUse">
<stop stop-color="#065099"/>
<stop offset="1" stop-color="#065099" stop-opacity="0"/>
</linearGradient>
<linearGradient id="paint8_linear_404_476" x1="26.215" y1="63.0094" x2="62.1071" y2="39.0787" gradientUnits="userSpaceOnUse">
<stop stop-color="#BCC1D6"/>
<stop offset="1" stop-color="#E9ECFA"/>
</linearGradient>
<linearGradient id="paint9_linear_404_476" x1="63.3478" y1="56.5312" x2="52.0268" y2="66.9515" gradientUnits="userSpaceOnUse">
<stop stop-color="#F0F3FF"/>
<stop offset="1" stop-color="#E1E5F5"/>
</linearGradient>
<linearGradient id="paint10_linear_404_476" x1="41.9365" y1="46.5782" x2="37.569" y2="49.9056" gradientUnits="userSpaceOnUse">
<stop stop-color="#F1F4FF"/>
<stop offset="1" stop-color="#D5DAF0"/>
</linearGradient>
<linearGradient id="paint11_linear_404_476" x1="46.6914" y1="51.8622" x2="41.2781" y2="55.7937" gradientUnits="userSpaceOnUse">
<stop stop-color="#F1F4FF"/>
<stop offset="1" stop-color="#D5DAF0"/>
</linearGradient>
<linearGradient id="paint12_linear_404_476" x1="52.2748" y1="56.0856" x2="45.7584" y2="60.5262" gradientUnits="userSpaceOnUse">
<stop stop-color="#F1F4FF"/>
<stop offset="1" stop-color="#D5DAF0"/>
</linearGradient>
<linearGradient id="paint13_linear_404_476" x1="52.2748" y1="56.0856" x2="45.7584" y2="60.5262" gradientUnits="userSpaceOnUse">
<stop stop-color="#F1F4FF"/>
<stop offset="1" stop-color="#D5DAF0"/>
</linearGradient>
<linearGradient id="paint14_linear_404_476" x1="231.212" y1="98.3884" x2="255.546" y2="24.9851" gradientUnits="userSpaceOnUse">
<stop stop-color="#F0F6F9"/>
<stop offset="1" stop-color="#CDDFF2"/>
</linearGradient>
<linearGradient id="paint15_linear_404_476" x1="231.212" y1="98.3884" x2="255.546" y2="24.9851" gradientUnits="userSpaceOnUse">
<stop stop-color="#F0F6F9"/>
<stop offset="1" stop-color="#CDDFF2"/>
</linearGradient>
<linearGradient id="paint16_linear_404_476" x1="199.883" y1="66.5825" x2="248.417" y2="52.4863" gradientUnits="userSpaceOnUse">
<stop stop-color="#E0EDF6"/>
<stop offset="1" stop-color="#A5CAE8"/>
</linearGradient>
<linearGradient id="paint17_linear_404_476" x1="227.612" y1="84.6756" x2="223.262" y2="79.8451" gradientUnits="userSpaceOnUse">
<stop stop-color="#043A70"/>
<stop offset="1" stop-color="#065099" stop-opacity="0"/>
</linearGradient>
<linearGradient id="paint18_linear_404_476" x1="230.389" y1="38.4421" x2="225.558" y2="42.7914" gradientUnits="userSpaceOnUse">
<stop stop-color="#002C57"/>
<stop offset="1" stop-color="#065099" stop-opacity="0"/>
</linearGradient>
<linearGradient id="paint19_linear_404_476" x1="199.883" y1="66.5825" x2="248.417" y2="52.4863" gradientUnits="userSpaceOnUse">
<stop stop-color="#E0EDF6"/>
<stop offset="1" stop-color="#A5CAE8"/>
</linearGradient>
<linearGradient id="paint20_linear_404_476" x1="227.612" y1="84.6756" x2="223.262" y2="79.8451" gradientUnits="userSpaceOnUse">
<stop stop-color="#043A70"/>
<stop offset="1" stop-color="#065099" stop-opacity="0"/>
</linearGradient>
<linearGradient id="paint21_linear_404_476" x1="230.389" y1="38.4421" x2="225.558" y2="42.7914" gradientUnits="userSpaceOnUse">
<stop stop-color="#002C57"/>
<stop offset="1" stop-color="#065099" stop-opacity="0"/>
</linearGradient>
<radialGradient id="paint22_radial_404_476" cx="0" cy="0" r="1" gradientUnits="userSpaceOnUse" gradientTransform="translate(233.887 59.5137) rotate(178.462) scale(22.3439 24.599)">
<stop stop-color="#F5A2A1"/>
<stop offset="1" stop-color="#D96F6E"/>
</radialGradient>
<linearGradient id="paint23_linear_404_476" x1="62.8815" y1="189.199" x2="46.3536" y2="264.743" gradientUnits="userSpaceOnUse">
<stop stop-color="#F0F6F9"/>
<stop offset="1" stop-color="#CDDFF2"/>
</linearGradient>
<linearGradient id="paint24_linear_404_476" x1="97.3639" y1="217.555" x2="50.5692" y2="236.648" gradientUnits="userSpaceOnUse">
<stop stop-color="#E0EDF6"/>
<stop offset="1" stop-color="#A5CAE8"/>
</linearGradient>
<linearGradient id="paint25_linear_404_476" x1="32.3622" y1="220.254" x2="42.8802" y2="218.287" gradientUnits="userSpaceOnUse">
<stop stop-color="#043A70"/>
<stop offset="1" stop-color="#065099" stop-opacity="0"/>
</linearGradient>
<linearGradient id="paint26_linear_404_476" x1="54.3915" y1="262.292" x2="60.1901" y2="258.094" gradientUnits="userSpaceOnUse">
<stop stop-color="#002C57"/>
<stop offset="1" stop-color="#065099" stop-opacity="0"/>
</linearGradient>
<radialGradient id="paint27_radial_404_476" cx="0" cy="0" r="1" gradientUnits="userSpaceOnUse" gradientTransform="translate(54.1319 233.076) rotate(-28.7665) scale(29.149 25.802)">
<stop stop-color="#F8BAB9"/>
<stop offset="1" stop-color="#C9706F"/>
</radialGradient>
<clipPath id="clip0_404_476">
<rect width="80" height="80" fill="white" transform="translate(188.466 234.974) rotate(-47)"/>
</clipPath>
<clipPath id="clip1_404_476">
<rect width="80" height="80" fill="white" transform="translate(238.47 113.922) rotate(-132)"/>
</clipPath>
<clipPath id="clip2_404_476">
<rect width="80" height="80" fill="white" transform="translate(54.0394 174.509) rotate(42)"/>
</clipPath>
</defs>
</svg>
