<svg width="335" height="266" viewBox="0 0 335 266" fill="none" xmlns="http://www.w3.org/2000/svg">
<circle cx="173" cy="132" r="100" fill="#5460e6"/>
<path d="M263 132C263 181.706 222.706 222 173 222C123.294 222 83 181.706 83 132C83 82.2944 123.294 42 173 42C222.706 42 263 82.2944 263 132Z" fill="#F6EBE5"/>
<g clip-path="url(#clip0_413_277)">
<path fill-rule="evenodd" clip-rule="evenodd" d="M242.509 140.608C241.773 145.979 238.069 152.143 233.673 155.315C230.101 157.892 227.631 161.691 227.037 166.208C225.783 175.742 233.354 184.905 243.997 186.823C243.999 186.823 244.002 186.825 244.003 186.826L246.852 187.141C256.483 188.205 265.965 190.342 275.121 193.513L283.83 196.529C286.392 197.301 289.144 196.243 290.516 193.96C291.989 191.508 291.456 188.345 289.258 186.494L276.288 175.576C274.761 174.29 274.391 172.091 275.414 170.388C276.438 168.684 278.553 167.979 280.405 168.724L296.135 175.049C298.8 176.121 301.844 175.107 303.317 172.655C304.689 170.372 304.33 167.445 302.447 165.546L295.695 159.272C288.597 152.676 282.258 145.308 276.798 137.303L275.182 134.936C275.18 134.935 275.178 134.934 275.176 134.932C268.486 126.435 256.841 124.052 249.012 129.635C245.302 132.28 243.108 136.245 242.509 140.608Z" fill="url(#paint0_linear_413_277)"/>
<g filter="url(#filter0_f_413_277)">
<path d="M234.082 168.284L231.906 167.528C231.26 167.303 230.546 167.562 230.194 168.148C229.832 168.75 229.956 169.525 230.488 169.984L231.997 171.288C234.19 173.181 234.989 176.23 234.008 178.956L232.982 181.808C232.763 182.416 233.004 183.093 233.558 183.426C234.129 183.769 234.865 183.645 235.292 183.135L237.01 181.082C238.947 178.768 242.149 177.956 244.955 179.067L246.911 179.841C247.562 180.099 248.305 179.848 248.666 179.248C249.017 178.663 248.907 177.911 248.403 177.452L246.627 175.834C244.471 173.869 243.759 170.773 244.841 168.063L245.803 165.653C246.051 165.033 245.813 164.325 245.24 163.981C244.686 163.648 243.974 163.751 243.537 164.227L241.534 166.407C239.646 168.463 236.718 169.2 234.082 168.284Z" fill="url(#paint1_linear_413_277)"/>
</g>
<path d="M234.9 169.628L230.986 167.905C230.694 167.776 230.352 167.885 230.188 168.158C230.02 168.438 230.092 168.8 230.355 168.994L233.759 171.508C235.763 172.987 236.463 175.664 235.44 177.934L233.32 182.638C233.19 182.927 233.296 183.269 233.569 183.432C233.848 183.6 234.21 183.526 234.4 183.261L237.229 179.323C238.754 177.199 241.585 176.479 243.94 177.616L247.844 179.501C248.138 179.643 248.492 179.537 248.66 179.258C248.824 178.984 248.758 178.632 248.507 178.435L245.057 175.743C242.976 174.119 242.32 171.258 243.484 168.89L245.492 164.804C245.636 164.511 245.532 164.156 245.252 163.988C244.979 163.824 244.628 163.89 244.432 164.14L241.44 167.979C239.895 169.961 237.201 170.64 234.9 169.628Z" fill="url(#paint2_linear_413_277)"/>
<g filter="url(#filter1_f_413_277)">
<path d="M279.125 149.791L278.386 149.534C277.98 149.393 277.531 149.556 277.31 149.924C277.082 150.303 277.16 150.79 277.494 151.079L277.905 151.434C279.608 152.904 280.229 155.272 279.467 157.389L279.062 158.513C278.925 158.895 279.076 159.322 279.425 159.531C279.784 159.746 280.246 159.669 280.515 159.348L281.105 158.643C282.616 156.838 285.113 156.205 287.301 157.071L287.821 157.277C288.23 157.439 288.697 157.281 288.924 156.903C289.145 156.536 289.076 156.063 288.758 155.774L288.008 155.091C286.432 153.655 285.912 151.392 286.703 149.411L287.124 148.356C287.28 147.966 287.13 147.521 286.77 147.305C286.422 147.095 285.974 147.16 285.699 147.459L284.89 148.34C283.43 149.929 281.164 150.5 279.125 149.791Z" fill="url(#paint3_linear_413_277)"/>
</g>
<path d="M280.269 150.855L277.807 149.771C277.624 149.691 277.409 149.759 277.306 149.931C277.2 150.107 277.245 150.335 277.41 150.457L279.551 152.037C280.811 152.967 281.251 154.65 280.608 156.078L279.275 159.035C279.193 159.217 279.26 159.432 279.431 159.535C279.607 159.64 279.835 159.594 279.954 159.427L281.733 156.951C282.692 155.615 284.472 155.163 285.952 155.877L288.408 157.063C288.592 157.152 288.814 157.086 288.92 156.91C289.023 156.738 288.982 156.516 288.824 156.393L286.655 154.7C285.347 153.679 284.934 151.88 285.666 150.391L286.928 147.822C287.019 147.638 286.953 147.415 286.777 147.309C286.606 147.206 286.385 147.247 286.262 147.405L284.38 149.818C283.409 151.064 281.715 151.491 280.269 150.855Z" fill="url(#paint4_linear_413_277)"/>
</g>
<path fill-rule="evenodd" clip-rule="evenodd" d="M181.312 192.372C176.329 194.507 169.138 194.507 164.155 192.372C160.107 190.638 155.578 190.477 151.4 192.295C142.58 196.131 138.626 207.343 142.467 217.456L142.465 217.457L148.754 233.307L154.661 256.593C155.318 259.185 157.643 261 160.306 261C163.166 261 165.603 258.914 166.057 256.077L168.737 239.336C169.052 237.365 170.746 235.915 172.734 235.915C174.721 235.915 176.415 237.365 176.73 239.336L179.41 256.076C179.864 258.914 182.301 261 185.161 261C187.824 261 190.149 259.185 190.806 256.593L196.713 233.307L203.002 217.457L203 217.456C206.842 207.343 202.887 196.131 194.067 192.295C189.889 190.477 185.36 190.638 181.312 192.372Z" fill="url(#paint5_linear_413_277)"/>
<path fill-rule="evenodd" clip-rule="evenodd" d="M173.757 193.953C173.769 194.737 173.476 195.524 172.879 196.121L170.121 198.879C168.95 200.05 168.95 201.95 170.121 203.121L172.879 205.879C174.05 207.05 174.05 208.95 172.879 210.121L170.121 212.879C168.95 214.05 168.95 215.95 170.121 217.121L172.879 219.879C174.05 221.05 174.05 222.95 172.879 224.121L170.121 226.879C168.95 228.05 168.95 229.95 170.121 231.121L173.015 234.015C173.586 234.586 173.881 235.333 173.894 236.085C173.525 235.974 173.135 235.915 172.733 235.915C170.746 235.915 169.052 237.365 168.737 239.336L166.057 256.076C165.603 258.914 163.166 261 160.306 261C157.642 261 155.318 259.185 154.661 256.593L148.754 233.307L142.465 217.457L142.467 217.456C138.625 207.343 142.58 196.131 151.399 192.295C155.578 190.477 160.106 190.638 164.155 192.372C166.926 193.56 170.38 194.087 173.757 193.953Z" fill="url(#paint6_linear_413_277)"/>
<path d="M140.182 70.6657C135.071 72.5518 129.767 77.4976 127.529 82.4651C125.711 86.5012 122.479 89.7317 118.174 91.2936C109.088 94.5902 98.6252 89.2178 94.6524 79.2772L94.6499 79.2781L92.1852 72.8333C91.6034 71.312 92.0021 69.5898 93.1933 68.479L128.625 35.4382C129.816 34.3274 131.562 34.0498 133.039 34.7363L139.296 37.6446L139.295 37.647C148.935 42.3036 153.564 53.1156 149.642 61.9497C147.783 66.1351 144.335 69.1333 140.182 70.6657Z" fill="url(#paint7_linear_413_277)"/>
<path d="M140.182 70.6657C135.071 72.5518 129.767 77.4976 127.529 82.4651C125.711 86.5012 122.479 89.7317 118.174 91.2936C109.088 94.5902 98.6252 89.2178 94.6524 79.2772L94.6499 79.2781L92.1852 72.8333C91.6034 71.312 92.0021 69.5898 93.1933 68.479L128.625 35.4382C129.816 34.3274 131.562 34.0498 133.039 34.7363L139.296 37.6446L139.295 37.647C148.935 42.3036 153.564 53.1156 149.642 61.9497C147.783 66.1351 144.335 69.1333 140.182 70.6657Z" fill="url(#paint8_linear_413_277)" fill-opacity="0.1"/>
<path d="M140.182 70.6657C135.071 72.5518 129.767 77.4976 127.529 82.4651C125.711 86.5012 122.479 89.7317 118.174 91.2936C109.088 94.5902 98.6252 89.2178 94.6524 79.2772L94.6499 79.2781L92.1852 72.8333C91.6034 71.312 92.0021 69.5898 93.1933 68.479L128.625 35.4382C129.816 34.3274 131.562 34.0498 133.039 34.7363L139.296 37.6446L139.295 37.647C148.935 42.3036 153.564 53.1156 149.642 61.9497C147.783 66.1351 144.335 69.1333 140.182 70.6657Z" fill="url(#paint9_linear_413_277)" fill-opacity="0.05"/>
<path d="M122.028 37.4886L95.6989 62.0405L85.8829 40.4864C83.9138 36.1626 84.9286 31.0642 88.4033 27.8239C91.878 24.5837 97.0349 23.927 101.211 26.1929L122.028 37.4886Z" fill="url(#paint10_linear_413_277)"/>
<path d="M129.682 31.0343C130.624 32.0441 130.569 33.626 129.559 34.5677L92.2598 69.3496C91.25 70.2912 89.668 70.236 88.7264 69.2262C87.7847 68.2164 87.84 66.6345 88.8498 65.6928L126.149 30.9109C127.159 29.9693 128.741 30.0245 129.682 31.0343Z" fill="url(#paint11_linear_413_277)"/>
<path d="M103.367 24.8088C104.12 25.6166 104.076 26.8822 103.268 27.6355L87.1784 42.6394C86.3706 43.3928 85.105 43.3486 84.3517 42.5407C83.5984 41.7329 83.6426 40.4673 84.4504 39.714L100.54 24.7101C101.348 23.9568 102.614 24.0009 103.367 24.8088Z" fill="url(#paint12_linear_413_277)"/>
<path d="M109.969 28.2233C110.723 29.0311 110.678 30.2967 109.871 31.05L90.124 49.4639C89.3162 50.2172 88.0506 50.173 87.2973 49.3652C86.544 48.5574 86.5882 47.2918 87.396 46.5385L107.143 28.1246C107.95 27.3712 109.216 27.4154 109.969 28.2233Z" fill="url(#paint13_linear_413_277)"/>
<path d="M116.572 31.6378C117.325 32.4456 117.281 33.7111 116.473 34.4645L93.0696 56.2884C92.2618 57.0417 90.9962 56.9975 90.2429 56.1897C89.4896 55.3819 89.5338 54.1163 90.3416 53.363L113.745 31.539C114.553 30.7857 115.818 30.8299 116.572 31.6378Z" fill="url(#paint14_linear_413_277)"/>
<path d="M116.572 31.6378C117.325 32.4456 117.281 33.7111 116.473 34.4645L93.0696 56.2884C92.2618 57.0417 90.9962 56.9975 90.2429 56.1897C89.4896 55.3819 89.5338 54.1163 90.3416 53.363L113.745 31.539C114.553 30.7857 115.818 30.8299 116.572 31.6378Z" fill="url(#paint15_linear_413_277)"/>
<g clip-path="url(#clip1_413_277)">
<path fill-rule="evenodd" clip-rule="evenodd" d="M215.939 72.8152C220.86 75.0897 225.672 80.434 227.419 85.5654C228.839 89.7346 231.75 93.2075 235.896 95.0965C244.647 99.0829 255.623 94.5219 260.569 84.9042C260.57 84.9021 260.572 84.9004 260.574 84.8996L261.708 82.267C265.541 73.368 270.357 64.9254 276.066 57.0965L281.497 49.6492C282.984 47.4255 282.777 44.4842 280.995 42.505C279.081 40.3794 275.9 39.9642 273.488 41.5252L259.254 50.7355C257.578 51.8203 255.367 51.5317 254.037 50.0546C252.707 48.5775 252.652 46.3488 253.906 44.7951L264.553 31.6026C266.358 29.3667 266.278 26.1595 264.364 24.0339C262.582 22.0547 259.678 21.5417 257.311 22.7879L249.337 27.4105C240.954 32.27 232.054 36.1771 222.803 39.0589L220.067 39.9115C220.066 39.9136 220.064 39.9153 220.062 39.9162C209.98 43.8298 204.296 54.2689 207.346 63.3882C208.791 67.7095 211.941 70.9672 215.939 72.8152Z" fill="url(#paint16_linear_413_277)"/>
<path fill-rule="evenodd" clip-rule="evenodd" d="M215.939 72.8152C220.86 75.0897 225.672 80.434 227.419 85.5654C228.839 89.7346 231.75 93.2075 235.896 95.0965C244.647 99.0829 255.623 94.5219 260.569 84.9042C260.57 84.9021 260.572 84.9004 260.574 84.8996L261.708 82.267C265.541 73.368 270.357 64.9254 276.066 57.0965L281.497 49.6492C282.984 47.4255 282.777 44.4842 280.995 42.505C279.081 40.3794 275.9 39.9642 273.488 41.5252L259.254 50.7355C257.578 51.8203 255.367 51.5317 254.037 50.0546C252.707 48.5775 252.652 46.3488 253.906 44.7951L264.553 31.6026C266.358 29.3667 266.278 26.1595 264.364 24.0339C262.582 22.0547 259.678 21.5417 257.311 22.7879L249.337 27.4105C240.954 32.27 232.054 36.1771 222.803 39.0589L220.067 39.9115C220.066 39.9136 220.064 39.9153 220.062 39.9162C209.98 43.8298 204.296 54.2689 207.346 63.3882C208.791 67.7095 211.941 70.9672 215.939 72.8152Z" fill="url(#paint17_linear_413_277)"/>
<path fill-rule="evenodd" clip-rule="evenodd" d="M227.824 86.6374C232.656 81.5578 238.907 71.6159 238.601 58.2636C238.41 49.9239 235.13 42.2606 231.179 36.1326C228.423 37.2023 225.63 38.1785 222.803 39.0589L220.067 39.9114C220.066 39.9136 220.064 39.9153 220.062 39.9162C209.98 43.8298 204.296 54.2689 207.346 63.3882C208.791 67.7095 211.941 70.9672 215.939 72.8152C220.86 75.0897 225.672 80.434 227.419 85.5654C227.543 85.9282 227.678 86.2857 227.824 86.6374Z" fill="url(#paint18_linear_413_277)"/>
<path fill-rule="evenodd" clip-rule="evenodd" d="M227.824 86.6374C232.656 81.5578 238.907 71.6159 238.601 58.2636C238.41 49.9239 235.13 42.2606 231.179 36.1326C228.423 37.2023 225.63 38.1785 222.803 39.0589L220.067 39.9114C220.066 39.9136 220.064 39.9153 220.062 39.9162C209.98 43.8298 204.296 54.2689 207.346 63.3882C208.791 67.7095 211.941 70.9672 215.939 72.8152C220.86 75.0897 225.672 80.434 227.419 85.5654C227.543 85.9282 227.678 86.2857 227.824 86.6374Z" fill="url(#paint19_linear_413_277)" fill-opacity="0.1"/>
<path fill-rule="evenodd" clip-rule="evenodd" d="M227.824 86.6374C232.656 81.5578 238.907 71.6159 238.601 58.2636C238.41 49.9239 235.13 42.2606 231.179 36.1326C228.423 37.2023 225.63 38.1785 222.803 39.0589L220.067 39.9114C220.066 39.9136 220.064 39.9153 220.062 39.9162C209.98 43.8298 204.296 54.2689 207.346 63.3882C208.791 67.7095 211.941 70.9672 215.939 72.8152C220.86 75.0897 225.672 80.434 227.419 85.5654C227.543 85.9282 227.678 86.2857 227.824 86.6374Z" fill="url(#paint20_linear_413_277)" fill-opacity="0.1"/>
<path fill-rule="evenodd" clip-rule="evenodd" d="M227.824 86.6374C232.656 81.5578 238.907 71.6159 238.601 58.2636C238.41 49.9239 235.13 42.2606 231.179 36.1326C228.423 37.2023 225.63 38.1785 222.803 39.0589L220.067 39.9114C220.066 39.9136 220.064 39.9153 220.062 39.9162C209.98 43.8298 204.296 54.2689 207.346 63.3882C208.791 67.7095 211.941 70.9672 215.939 72.8152C220.86 75.0897 225.672 80.434 227.419 85.5654C227.543 85.9282 227.678 86.2857 227.824 86.6374Z" fill="url(#paint21_linear_413_277)"/>
<path fill-rule="evenodd" clip-rule="evenodd" d="M227.824 86.6374C232.656 81.5578 238.907 71.6159 238.601 58.2636C238.41 49.9239 235.13 42.2606 231.179 36.1326C228.423 37.2023 225.63 38.1785 222.803 39.0589L220.067 39.9114C220.066 39.9136 220.064 39.9153 220.062 39.9162C209.98 43.8298 204.296 54.2689 207.346 63.3882C208.791 67.7095 211.941 70.9672 215.939 72.8152C220.86 75.0897 225.672 80.434 227.419 85.5654C227.543 85.9282 227.678 86.2857 227.824 86.6374Z" fill="url(#paint22_linear_413_277)" fill-opacity="0.1"/>
<path fill-rule="evenodd" clip-rule="evenodd" d="M227.824 86.6374C232.656 81.5578 238.907 71.6159 238.601 58.2636C238.41 49.9239 235.13 42.2606 231.179 36.1326C228.423 37.2023 225.63 38.1785 222.803 39.0589L220.067 39.9114C220.066 39.9136 220.064 39.9153 220.062 39.9162C209.98 43.8298 204.296 54.2689 207.346 63.3882C208.791 67.7095 211.941 70.9672 215.939 72.8152C220.86 75.0897 225.672 80.434 227.419 85.5654C227.543 85.9282 227.678 86.2857 227.824 86.6374Z" fill="url(#paint23_linear_413_277)" fill-opacity="0.1"/>
<path d="M234.456 77.0121C236.941 71.9644 238.77 65.6335 238.601 58.2637C238.501 53.8969 237.554 49.7157 236.107 45.8431L225.128 49.6216C218.087 52.045 216.867 61.4838 223.061 65.6177L227.189 68.3727C230.051 70.2825 232.371 72.8982 233.926 75.9669L234.456 77.0121Z" fill="url(#paint24_radial_413_277)"/>
</g>
<g clip-path="url(#clip2_413_277)">
<path fill-rule="evenodd" clip-rule="evenodd" d="M111.027 160.893C107.316 156.941 104.857 150.184 105.158 144.771C105.404 140.374 104.006 136.063 100.869 132.758C94.249 125.784 82.3637 125.902 74.175 132.966C74.1732 132.968 74.1708 132.968 74.1684 132.968L72.1309 134.984C65.2433 141.8 57.6154 147.823 49.3893 152.944L41.564 157.814C39.3525 159.319 38.4423 162.124 39.3532 164.626C40.3315 167.314 43.1255 168.891 45.9469 168.347L62.594 165.139C64.5546 164.761 66.4962 165.857 67.176 167.725C67.8558 169.593 67.0727 171.68 65.328 172.651L50.5136 180.894C48.0028 182.291 46.8759 185.295 47.8542 187.983C48.7651 190.485 51.2651 192.049 53.9265 191.78L63.0517 190.481C72.6445 189.116 82.3598 188.827 92.0167 189.62L94.8735 189.855C94.8752 189.853 94.8776 189.853 94.88 189.853C105.694 190.001 114.874 182.451 115.462 172.853C115.741 168.305 114.041 164.105 111.027 160.893Z" fill="url(#paint25_linear_413_277)"/>
<path d="M76.8642 130.972C70.7865 136.55 64.9488 144.158 61.1676 154.172C59.7021 158.053 58.7505 162.022 58.2079 165.984L62.594 165.139C64.5546 164.761 66.4962 165.857 67.176 167.725C67.8558 169.593 67.0727 171.68 65.328 172.651L57.6696 176.912C57.8283 181.817 58.4873 186.575 59.4335 190.996L63.0517 190.481C72.6445 189.116 82.3598 188.827 92.0167 189.62L94.8735 189.855C94.8752 189.853 94.8776 189.853 94.88 189.853C105.694 190.001 114.874 182.451 115.462 172.853C115.741 168.305 114.041 164.105 111.027 160.893C107.316 156.941 104.857 150.184 105.158 144.771C105.404 140.374 104.006 136.063 100.869 132.758C94.9436 126.516 84.7997 125.955 76.8642 130.972Z" fill="url(#paint26_linear_413_277)"/>
<path d="M76.8642 130.972C70.7865 136.55 64.9488 144.158 61.1676 154.172C59.7021 158.053 58.7505 162.022 58.2079 165.984L62.594 165.139C64.5546 164.761 66.4962 165.857 67.176 167.725C67.8558 169.593 67.0727 171.68 65.328 172.651L57.6696 176.912C57.8283 181.817 58.4873 186.575 59.4335 190.996L63.0517 190.481C72.6445 189.116 82.3598 188.827 92.0167 189.62L94.8735 189.855C94.8752 189.853 94.8776 189.853 94.88 189.853C105.694 190.001 114.874 182.451 115.462 172.853C115.741 168.305 114.041 164.105 111.027 160.893C107.316 156.941 104.857 150.184 105.158 144.771C105.404 140.374 104.006 136.063 100.869 132.758C94.9436 126.516 84.7997 125.955 76.8642 130.972Z" fill="url(#paint27_linear_413_277)" fill-opacity="0.1"/>
<path d="M76.8642 130.972C70.7865 136.55 64.9488 144.158 61.1676 154.172C59.7021 158.053 58.7505 162.022 58.2079 165.984L62.594 165.139C64.5546 164.761 66.4962 165.857 67.176 167.725C67.8558 169.593 67.0727 171.68 65.328 172.651L57.6696 176.912C57.8283 181.817 58.4873 186.575 59.4335 190.996L63.0517 190.481C72.6445 189.116 82.3598 188.827 92.0167 189.62L94.8735 189.855C94.8752 189.853 94.8776 189.853 94.88 189.853C105.694 190.001 114.874 182.451 115.462 172.853C115.741 168.305 114.041 164.105 111.027 160.893C107.316 156.941 104.857 150.184 105.158 144.771C105.404 140.374 104.006 136.063 100.869 132.758C94.9436 126.516 84.7997 125.955 76.8642 130.972Z" fill="url(#paint28_linear_413_277)" fill-opacity="0.1"/>
<path d="M59.2687 160.346C59.5969 158.989 59.9795 157.636 60.4205 156.291C64.5791 154.206 68.4214 151.523 71.8217 148.319L79.8426 140.762C85.2778 135.641 94.2254 138.985 94.9695 146.416L95.4683 151.396C95.8012 154.72 96.9614 157.908 98.8431 160.668L101.963 165.245C106.114 171.334 101.587 179.558 94.2217 179.309L82.469 178.911C76.3273 178.703 70.2029 179.677 64.4283 181.778L58.2427 184.03C58.1472 183.279 58.0617 182.522 57.987 181.76L68.8499 176.495C71.8485 175.042 73.8668 172.125 74.1689 168.806C74.3999 166.268 73.4867 163.759 71.678 161.963C69.3136 159.615 65.892 158.677 62.6608 159.491L59.2687 160.346Z" fill="url(#paint29_radial_413_277)"/>
</g>
<defs>
<filter id="filter0_f_413_277" x="225.988" y="159.787" width="26.8823" height="27.8323" filterUnits="userSpaceOnUse" color-interpolation-filters="sRGB">
<feFlood flood-opacity="0" result="BackgroundImageFix"/>
<feBlend mode="normal" in="SourceGraphic" in2="BackgroundImageFix" result="shape"/>
<feGaussianBlur stdDeviation="2" result="effect1_foregroundBlur_413_277"/>
</filter>
<filter id="filter1_f_413_277" x="273.18" y="143.182" width="19.8727" height="20.47" filterUnits="userSpaceOnUse" color-interpolation-filters="sRGB">
<feFlood flood-opacity="0" result="BackgroundImageFix"/>
<feBlend mode="normal" in="SourceGraphic" in2="BackgroundImageFix" result="shape"/>
<feGaussianBlur stdDeviation="2" result="effect1_foregroundBlur_413_277"/>
</filter>
<linearGradient id="paint0_linear_413_277" x1="224.897" y1="167.255" x2="302.208" y2="169.065" gradientUnits="userSpaceOnUse">
<stop stop-color="#F0F6F9"/>
<stop offset="1" stop-color="#CDDFF2"/>
</linearGradient>
<linearGradient id="paint1_linear_413_277" x1="230.183" y1="168.166" x2="248.655" y2="179.265" gradientUnits="userSpaceOnUse">
<stop stop-color="white"/>
<stop offset="1" stop-color="white"/>
</linearGradient>
<linearGradient id="paint2_linear_413_277" x1="230.183" y1="168.166" x2="248.655" y2="179.265" gradientUnits="userSpaceOnUse">
<stop stop-color="white"/>
<stop offset="1" stop-color="white"/>
</linearGradient>
<linearGradient id="paint3_linear_413_277" x1="277.303" y1="149.936" x2="288.917" y2="156.915" gradientUnits="userSpaceOnUse">
<stop stop-color="white"/>
<stop offset="1" stop-color="white"/>
</linearGradient>
<linearGradient id="paint4_linear_413_277" x1="277.303" y1="149.936" x2="288.917" y2="156.915" gradientUnits="userSpaceOnUse">
<stop stop-color="white"/>
<stop offset="1" stop-color="white"/>
</linearGradient>
<linearGradient id="paint5_linear_413_277" x1="149.4" y1="191" x2="187.667" y2="258.2" gradientUnits="userSpaceOnUse">
<stop stop-color="#EBF4F8"/>
<stop offset="1" stop-color="#D0E0F3"/>
</linearGradient>
<linearGradient id="paint6_linear_413_277" x1="149.4" y1="191" x2="187.667" y2="258.2" gradientUnits="userSpaceOnUse">
<stop stop-color="#F7F5EF"/>
<stop offset="1" stop-color="#D0A768"/>
</linearGradient>
<linearGradient id="paint7_linear_413_277" x1="151.988" y1="61.509" x2="78.9762" y2="37.9686" gradientUnits="userSpaceOnUse">
<stop stop-color="#F0F6F9"/>
<stop offset="1" stop-color="#CDDFF2"/>
</linearGradient>
<linearGradient id="paint8_linear_413_277" x1="110.252" y1="50.5206" x2="112.298" y2="52.7147" gradientUnits="userSpaceOnUse">
<stop offset="0.241809" stop-color="#065099"/>
<stop offset="1" stop-color="#DFEBF6" stop-opacity="0.47"/>
</linearGradient>
<linearGradient id="paint9_linear_413_277" x1="110.909" y1="51.9586" x2="113.637" y2="54.884" gradientUnits="userSpaceOnUse">
<stop stop-color="#065099"/>
<stop offset="1" stop-color="#065099" stop-opacity="0"/>
</linearGradient>
<linearGradient id="paint10_linear_413_277" x1="80.509" y1="45.7513" x2="119.703" y2="27.73" gradientUnits="userSpaceOnUse">
<stop stop-color="#BCC1D6"/>
<stop offset="1" stop-color="#E9ECFA"/>
</linearGradient>
<linearGradient id="paint11_linear_413_277" x1="118.198" y1="45.1618" x2="105.386" y2="53.6828" gradientUnits="userSpaceOnUse">
<stop stop-color="#F0F3FF"/>
<stop offset="1" stop-color="#E1E5F5"/>
</linearGradient>
<linearGradient id="paint12_linear_413_277" x1="98.6074" y1="31.9818" x2="93.7731" y2="34.585" gradientUnits="userSpaceOnUse">
<stop stop-color="#F1F4FF"/>
<stop offset="1" stop-color="#D5DAF0"/>
</linearGradient>
<linearGradient id="paint13_linear_413_277" x1="102.477" y1="37.9445" x2="96.5154" y2="40.9808" gradientUnits="userSpaceOnUse">
<stop stop-color="#F1F4FF"/>
<stop offset="1" stop-color="#D5DAF0"/>
</linearGradient>
<linearGradient id="paint14_linear_413_277" x1="107.331" y1="42.9894" x2="100.2" y2="46.356" gradientUnits="userSpaceOnUse">
<stop stop-color="#F1F4FF"/>
<stop offset="1" stop-color="#D5DAF0"/>
</linearGradient>
<linearGradient id="paint15_linear_413_277" x1="107.331" y1="42.9894" x2="100.2" y2="46.356" gradientUnits="userSpaceOnUse">
<stop stop-color="#F1F4FF"/>
<stop offset="1" stop-color="#D5DAF0"/>
</linearGradient>
<linearGradient id="paint16_linear_413_277" x1="236.272" y1="97.4486" x2="260.606" y2="24.0454" gradientUnits="userSpaceOnUse">
<stop stop-color="#F0F6F9"/>
<stop offset="1" stop-color="#CDDFF2"/>
</linearGradient>
<linearGradient id="paint17_linear_413_277" x1="236.272" y1="97.4486" x2="260.606" y2="24.0454" gradientUnits="userSpaceOnUse">
<stop stop-color="#F0F6F9"/>
<stop offset="1" stop-color="#CDDFF2"/>
</linearGradient>
<linearGradient id="paint18_linear_413_277" x1="204.943" y1="65.6428" x2="253.477" y2="51.5465" gradientUnits="userSpaceOnUse">
<stop stop-color="#E0EDF6"/>
<stop offset="1" stop-color="#A5CAE8"/>
</linearGradient>
<linearGradient id="paint19_linear_413_277" x1="232.672" y1="83.7358" x2="228.322" y2="78.9054" gradientUnits="userSpaceOnUse">
<stop stop-color="#043A70"/>
<stop offset="1" stop-color="#065099" stop-opacity="0"/>
</linearGradient>
<linearGradient id="paint20_linear_413_277" x1="235.449" y1="37.5023" x2="230.618" y2="41.8516" gradientUnits="userSpaceOnUse">
<stop stop-color="#002C57"/>
<stop offset="1" stop-color="#065099" stop-opacity="0"/>
</linearGradient>
<linearGradient id="paint21_linear_413_277" x1="204.943" y1="65.6428" x2="253.477" y2="51.5465" gradientUnits="userSpaceOnUse">
<stop stop-color="#E0EDF6"/>
<stop offset="1" stop-color="#A5CAE8"/>
</linearGradient>
<linearGradient id="paint22_linear_413_277" x1="232.672" y1="83.7358" x2="228.322" y2="78.9054" gradientUnits="userSpaceOnUse">
<stop stop-color="#043A70"/>
<stop offset="1" stop-color="#065099" stop-opacity="0"/>
</linearGradient>
<linearGradient id="paint23_linear_413_277" x1="235.449" y1="37.5023" x2="230.618" y2="41.8516" gradientUnits="userSpaceOnUse">
<stop stop-color="#002C57"/>
<stop offset="1" stop-color="#065099" stop-opacity="0"/>
</linearGradient>
<radialGradient id="paint24_radial_413_277" cx="0" cy="0" r="1" gradientUnits="userSpaceOnUse" gradientTransform="translate(238.947 58.5739) rotate(178.462) scale(22.3439 24.599)">
<stop stop-color="#F5A2A1"/>
<stop offset="1" stop-color="#D96F6E"/>
</radialGradient>
<linearGradient id="paint25_linear_413_277" x1="101.402" y1="130.437" x2="51.3424" y2="189.379" gradientUnits="userSpaceOnUse">
<stop stop-color="#F0F6F9"/>
<stop offset="1" stop-color="#CDDFF2"/>
</linearGradient>
<linearGradient id="paint26_linear_413_277" x1="118.535" y1="171.663" x2="68.2547" y2="166.552" gradientUnits="userSpaceOnUse">
<stop stop-color="#E0EDF6"/>
<stop offset="1" stop-color="#A5CAE8"/>
</linearGradient>
<linearGradient id="paint27_linear_413_277" x1="59.8752" y1="143.529" x2="70.0857" y2="146.73" gradientUnits="userSpaceOnUse">
<stop stop-color="#043A70"/>
<stop offset="1" stop-color="#065099" stop-opacity="0"/>
</linearGradient>
<linearGradient id="paint28_linear_413_277" x1="59.5902" y1="190.989" x2="66.681" y2="190.004" gradientUnits="userSpaceOnUse">
<stop stop-color="#002C57"/>
<stop offset="1" stop-color="#065099" stop-opacity="0"/>
</linearGradient>
<radialGradient id="paint29_radial_413_277" cx="0" cy="0" r="1" gradientUnits="userSpaceOnUse" gradientTransform="translate(73.0772 165.07) rotate(-0.766495) scale(29.149 25.802)">
<stop stop-color="#F8BAB9"/>
<stop offset="1" stop-color="#C9706F"/>
</radialGradient>
<clipPath id="clip0_413_277">
<rect width="80" height="80" fill="white" transform="translate(212.165 178.738) rotate(-59)"/>
</clipPath>
<clipPath id="clip1_413_277">
<rect width="80" height="80" fill="white" transform="translate(243.53 112.982) rotate(-132)"/>
</clipPath>
<clipPath id="clip2_413_277">
<rect width="80" height="80" fill="white" transform="translate(100.491 113.316) rotate(70)"/>
</clipPath>
</defs>
</svg>
